<svg width="24" height="34" viewBox="0 0 24 34" fill="none" xmlns="http://www.w3.org/2000/svg">
<g clip-path="url(#clip0_4103_493)">
<path d="M12 24.8999L16.95 19.9499C17.9289 18.9709 18.5955 17.7236 18.8656 16.3658C19.1356 15.0079 18.9969 13.6005 18.4671 12.3215C17.9373 11.0424 17.04 9.94923 15.8889 9.18009C14.7378 8.41095 13.3844 8.00043 12 8.00043C10.6156 8.00043 9.26222 8.41095 8.11109 9.18009C6.95996 9.94923 6.06275 11.0424 5.53292 12.3215C5.00308 13.6005 4.86442 15.0079 5.13445 16.3658C5.40449 17.7236 6.07111 18.9709 7.05 19.9499L12 24.8999ZM12 27.7279L5.636 21.3639C4.37734 20.1052 3.52019 18.5016 3.17293 16.7558C2.82567 15.0099 3.00391 13.2004 3.6851 11.5558C4.36629 9.91129 5.51984 8.50569 6.99988 7.51677C8.47992 6.52784 10.22 6 12 6C13.78 6 15.5201 6.52784 17.0001 7.51677C18.4802 8.50569 19.6337 9.91129 20.3149 11.5558C20.9961 13.2004 21.1743 15.0099 20.8271 16.7558C20.4798 18.5016 19.6227 20.1052 18.364 21.3639L12 27.7279ZM12 16.9999C12.5304 16.9999 13.0391 16.7892 13.4142 16.4141C13.7893 16.0391 14 15.5304 14 14.9999C14 14.4695 13.7893 13.9608 13.4142 13.5857C13.0391 13.2106 12.5304 12.9999 12 12.9999C11.4696 12.9999 10.9609 13.2106 10.5858 13.5857C10.2107 13.9608 10 14.4695 10 14.9999C10 15.5304 10.2107 16.0391 10.5858 16.4141C10.9609 16.7892 11.4696 16.9999 12 16.9999ZM12 18.9999C10.9391 18.9999 9.92172 18.5785 9.17158 17.8283C8.42143 17.0782 8 16.0608 8 14.9999C8 13.9391 8.42143 12.9216 9.17158 12.1715C9.92172 11.4213 10.9391 10.9999 12 10.9999C13.0609 10.9999 14.0783 11.4213 14.8284 12.1715C15.5786 12.9216 16 13.9391 16 14.9999C16 16.0608 15.5786 17.0782 14.8284 17.8283C14.0783 18.5785 13.0609 18.9999 12 18.9999Z" fill="#EB5757"/>
</g>
<defs>
<clipPath id="clip0_4103_493">
<rect width="24" height="24" fill="white" transform="translate(0 4)"/>
</clipPath>
</defs>
</svg>
