<svg width="50" height="60" viewBox="0 0 50 60" fill="none" xmlns="http://www.w3.org/2000/svg">
<path d="M25.0001 5.5138e-05C21.8086 -0.149627 18.6211 0.368699 15.6415 1.52185C12.6619 2.67501 9.95592 4.43758 7.69675 6.69675C5.43758 8.95592 3.67501 11.6619 2.52185 14.6415C1.3687 17.6211 0.850373 20.8086 1.00006 24.0001C1.00006 31.5601 7.00005 39.0001 10.0001 42.0001C13.0001 45.0001 25.0001 60.0001 25.0001 60.0001C25.0001 60.0001 37.0001 45.0001 40.0001 42.0001C43.0001 39.0001 49.0001 31.5601 49.0001 24.0001C49.1497 20.8086 48.6314 17.6211 47.4783 14.6415C46.3251 11.6619 44.5625 8.95592 42.3034 6.69675C40.0442 4.43758 37.3382 2.67501 34.3586 1.52185C31.379 0.368699 28.1915 -0.149627 25.0001 5.5138e-05ZM25.0001 33.7501C23.0717 33.7501 21.1866 33.1782 19.5832 32.1069C17.9799 31.0355 16.7302 29.5128 15.9922 27.7312C15.2543 25.9496 15.0612 23.9892 15.4374 22.0979C15.8136 20.2066 16.7422 18.4693 18.1058 17.1058C19.4693 15.7422 21.2066 14.8136 23.0979 14.4374C24.9892 14.0612 26.9496 14.2543 28.7312 14.9922C30.5128 15.7302 32.0355 16.9799 33.1069 18.5832C34.1782 20.1866 34.7501 22.0717 34.7501 24.0001C34.7501 25.2804 34.4979 26.5483 34.0079 27.7312C33.5179 28.9141 32.7997 29.989 31.8943 30.8943C30.989 31.7997 29.9141 32.5179 28.7312 33.0079C27.5483 33.4979 26.2804 33.7501 25.0001 33.7501Z" fill="#EB5757"/>
</svg>
